<svg xmlns="http://www.w3.org/2000/svg" xmlns:xlink="http://www.w3.org/1999/xlink" width="400" zoomAndPan="magnify" viewBox="0 0 300 299.999988" height="400" preserveAspectRatio="xMidYMid meet" version="1.0"><defs><clipPath id="id1"><path d="M 121 24.289062 L 177 24.289062 L 177 80 L 121 80 Z M 121 24.289062 " clip-rule="nonzero"/></clipPath><clipPath id="id2"><path d="M 3.398438 86 L 295 86 L 295 274 L 3.398438 274 Z M 3.398438 86 " clip-rule="nonzero"/></clipPath></defs><g clip-path="url(#id1)"><path fill="rgb(0%, 0%, 0%)" d="M 148.222656 24.558594 C 133.542969 24.976562 121.859375 36.992188 121.863281 51.667969 C 121.632812 66.628906 133.585938 78.957031 148.566406 79.191406 C 163.546875 79.429688 175.886719 67.476562 176.117188 52.511719 C 176.117188 52.230469 176.117188 51.945312 176.117188 51.667969 C 176.117188 36.691406 163.972656 24.550781 148.996094 24.546875 C 148.734375 24.546875 148.476562 24.550781 148.222656 24.558594 Z M 148.339844 29.769531 C 160.453125 29.410156 170.5625 38.929688 170.914062 51.035156 C 170.925781 51.242188 170.925781 51.453125 170.925781 51.667969 C 171.136719 63.769531 161.488281 73.757812 149.371094 73.972656 C 137.257812 74.183594 127.261719 64.539062 127.046875 52.4375 C 127.042969 52.175781 127.042969 51.921875 127.046875 51.667969 C 127.0625 39.816406 136.492188 30.117188 148.339844 29.769531 Z M 148.339844 29.769531 " fill-opacity="1" fill-rule="nonzero"/></g><g clip-path="url(#id2)"><path fill="rgb(0%, 0%, 0%)" d="M 29.144531 86.789062 C 14.816406 87.046875 3.40625 98.855469 3.664062 113.179688 C 3.878906 125.324219 12.507812 135.695312 24.425781 138.121094 L 24.425781 263.105469 L 8.855469 263.105469 C 5.988281 263.128906 3.675781 265.457031 3.691406 268.3125 C 3.699219 271.171875 6.007812 273.46875 8.855469 273.476562 L 50.375 273.476562 C 53.242188 273.46875 55.554688 271.128906 55.546875 268.269531 C 55.527344 265.425781 53.222656 263.128906 50.375 263.105469 L 34.804688 263.105469 L 34.804688 138.121094 C 45.566406 135.921875 53.777344 127.191406 55.300781 116.324219 C 110.617188 158.511719 187.335938 158.511719 242.65625 116.324219 C 244.1875 127.199219 252.40625 135.933594 263.171875 138.121094 L 263.171875 263.105469 L 247.601562 263.105469 C 244.742188 263.128906 242.421875 265.457031 242.433594 268.3125 C 242.453125 271.171875 244.753906 273.46875 247.601562 273.476562 L 289.125 273.476562 C 291.992188 273.46875 294.304688 271.128906 294.292969 268.269531 C 294.273438 265.425781 291.96875 263.128906 289.125 263.105469 L 273.554688 263.105469 L 273.554688 138.121094 C 287.601562 135.257812 296.664062 121.5625 293.796875 107.535156 C 290.929688 93.503906 277.222656 84.449219 263.183594 87.308594 C 255.589844 88.855469 249.089844 93.710938 245.453125 100.542969 C 190.652344 149.9375 107.332031 149.9375 52.519531 100.542969 C 47.941406 91.933594 38.910156 86.617188 29.144531 86.789062 Z M 29.1875 97.140625 C 37.785156 96.90625 44.945312 103.675781 45.179688 112.265625 C 45.183594 112.417969 45.183594 112.570312 45.183594 112.722656 C 45.203125 121.3125 38.246094 128.289062 29.644531 128.304688 C 21.046875 128.320312 14.0625 121.371094 14.042969 112.777344 C 14.042969 112.757812 14.042969 112.738281 14.042969 112.726562 C 14.035156 104.285156 20.746094 97.371094 29.1875 97.140625 Z M 267.898438 97.160156 C 276.496094 96.90625 283.671875 103.65625 283.9375 112.246094 C 283.9375 112.402344 283.9375 112.558594 283.9375 112.722656 C 283.984375 121.3125 277.046875 128.3125 268.449219 128.355469 C 259.851562 128.398438 252.832031 121.46875 252.796875 112.878906 C 252.796875 112.824219 252.796875 112.769531 252.796875 112.71875 C 252.792969 104.304688 259.488281 97.414062 267.898438 97.160156 Z M 267.898438 97.160156 " fill-opacity="1" fill-rule="nonzero"/></g><path fill="rgb(0%, 0%, 0%)" d="M 81.871094 138.96875 C 81.601562 138.65625 81.332031 138.328125 81.078125 137.992188 C 84.605469 139.648438 88.195312 141.179688 91.835938 142.570312 L 109.972656 163.5625 C 111.34375 165.195312 113.773438 165.40625 115.398438 164.035156 C 117.027344 162.667969 117.234375 160.230469 115.863281 158.601562 C 115.847656 158.582031 115.824219 158.558594 115.808594 158.542969 L 106.082031 147.28125 C 108.96875 148.085938 111.882812 148.808594 114.8125 149.449219 L 119.730469 155.136719 C 123.015625 158.90625 122.621094 164.605469 118.855469 167.890625 C 115.089844 171.164062 109.375 170.773438 106.097656 167.007812 C 106.074219 166.988281 106.054688 166.964844 106.039062 166.949219 Z M 81.871094 138.96875 " fill-opacity="1" fill-rule="nonzero"/><path fill="rgb(0%, 0%, 0%)" d="M 170.867188 151.640625 C 172.589844 151.402344 174.324219 151.136719 176.054688 150.839844 L 176.054688 173.234375 L 215.789062 253.949219 C 219.042969 260.6875 216.222656 268.800781 209.480469 272.050781 C 202.800781 275.28125 194.757812 272.542969 191.445312 265.910156 L 148.992188 179.675781 L 106.539062 265.910156 C 103.207031 272.617188 95.0625 275.34375 88.355469 272.019531 C 81.6875 268.695312 78.933594 260.628906 82.191406 253.945312 L 121.929688 173.230469 L 121.929688 150.835938 C 123.65625 151.125 125.382812 151.398438 127.121094 151.636719 L 127.121094 174.4375 L 86.851562 256.238281 C 84.847656 260.398438 86.597656 265.390625 90.765625 267.398438 C 94.878906 269.386719 99.832031 267.703125 101.882812 263.621094 L 144.332031 177.386719 C 145.59375 174.824219 148.707031 173.761719 151.277344 175.027344 C 152.304688 175.53125 153.140625 176.367188 153.644531 177.386719 L 196.085938 263.621094 C 198.152344 267.765625 203.179688 269.445312 207.316406 267.378906 C 211.433594 265.332031 213.136719 260.371094 211.128906 256.238281 L 170.867188 174.4375 Z M 170.867188 151.640625 " fill-opacity="1" fill-rule="nonzero"/><path fill="rgb(0%, 0%, 0%)" d="M 216.890625 137.992188 C 216.644531 138.328125 216.386719 138.65625 216.097656 138.96875 L 191.9375 166.945312 C 188.683594 170.742188 182.988281 171.191406 179.1875 167.949219 C 175.382812 164.707031 174.9375 159.003906 178.183594 155.207031 C 178.203125 155.1875 178.222656 155.15625 178.242188 155.136719 L 183.160156 149.453125 C 186.089844 148.808594 189.007812 148.085938 191.886719 147.28125 L 182.164062 158.542969 C 180.757812 160.132812 180.910156 162.578125 182.5 163.976562 C 184.101562 165.394531 186.535156 165.230469 187.933594 163.652344 C 187.953125 163.617188 187.976562 163.597656 187.992188 163.570312 L 206.140625 142.578125 C 209.773438 141.175781 213.359375 139.648438 216.890625 137.992188 Z M 216.890625 137.992188 " fill-opacity="1" fill-rule="nonzero"/><path fill="rgb(0%, 0%, 0%)" d="M 121.921875 129.742188 C 123.644531 130.085938 125.378906 130.394531 127.113281 130.671875 L 127.113281 108.839844 C 127.113281 105.976562 124.789062 103.65625 121.929688 103.65625 C 120.867188 103.65625 119.828125 103.980469 118.960938 104.582031 L 94.773438 121.386719 C 96.683594 122.195312 98.613281 122.957031 100.558594 123.6875 L 121.917969 108.835938 L 121.917969 129.742188 Z M 121.921875 129.742188 " fill-opacity="1" fill-rule="nonzero"/><path fill="rgb(0%, 0%, 0%)" d="M 203.195312 121.394531 L 179.015625 104.585938 C 176.667969 102.949219 173.425781 103.535156 171.792969 105.882812 C 171.199219 106.753906 170.875 107.785156 170.875 108.847656 L 170.875 130.675781 C 172.597656 130.402344 174.332031 130.085938 176.0625 129.753906 L 176.0625 108.847656 L 197.417969 123.699219 C 199.351562 122.96875 201.285156 122.203125 203.195312 121.394531 Z M 203.195312 121.394531 " fill-opacity="1" fill-rule="nonzero"/><path fill="rgb(0%, 0%, 0%)" d="M 215.957031 115.191406 C 215.003906 114.113281 213.929688 113.152344 212.742188 112.332031 L 180.910156 90.207031 C 174.839844 85.988281 167.644531 83.726562 160.25 83.726562 L 137.722656 83.726562 C 130.335938 83.726562 123.132812 85.988281 117.070312 90.207031 L 85.234375 112.324219 C 84.046875 113.148438 82.964844 114.109375 82.011719 115.1875 C 83.589844 116.058594 85.191406 116.890625 86.804688 117.699219 C 87.242188 117.296875 87.707031 116.921875 88.199219 116.578125 L 120.03125 94.453125 C 125.226562 90.839844 131.398438 88.90625 137.722656 88.90625 L 160.253906 88.90625 C 166.582031 88.90625 172.753906 90.839844 177.941406 94.453125 L 209.773438 116.578125 C 210.269531 116.921875 210.738281 117.289062 211.171875 117.699219 C 212.792969 116.898438 214.386719 116.0625 215.957031 115.191406 Z M 215.957031 115.191406 " fill-opacity="1" fill-rule="nonzero"/></svg>