<svg xmlns="http://www.w3.org/2000/svg" xmlns:xlink="http://www.w3.org/1999/xlink" width="900" zoomAndPan="magnify" viewBox="0 0 675 675.000002" height="900" preserveAspectRatio="xMidYMid meet" version="1.0"><defs><clipPath id="id1"><path d="M 16.652344 109 L 658.449219 109 L 658.449219 644.972656 L 16.652344 644.972656 Z M 16.652344 109 " clip-rule="nonzero"/></clipPath><clipPath id="id2"><path d="M 463 29.386719 L 506 29.386719 L 506 137 L 463 137 Z M 463 29.386719 " clip-rule="nonzero"/></clipPath></defs><g clip-path="url(#id1)"><path fill="rgb(100%, 78.039551%, 0%)" d="M 658.429688 337.175781 C 658.429688 329.789062 652.4375 323.804688 645.074219 323.804688 L 590.902344 323.804688 C 591.136719 315.113281 591.292969 306.199219 591.410156 297.039062 C 591.46875 297.039062 591.527344 297.050781 591.566406 297.050781 C 598.96875 297.050781 604.960938 291.0625 604.960938 283.675781 C 604.960938 276.289062 598.96875 270.292969 591.566406 270.292969 L 570.453125 270.292969 C 561.113281 248.929688 540.722656 218.890625 496.539062 196.085938 C 497.460938 194.261719 497.988281 192.214844 497.988281 190.039062 C 497.988281 182.652344 491.996094 176.667969 484.632812 176.667969 C 478.914062 176.667969 474.074219 180.234375 472.136719 185.25 C 456.449219 179.300781 438.449219 174.238281 417.769531 170.464844 L 417.769531 123.167969 C 417.769531 115.78125 411.777344 109.785156 404.410156 109.785156 L 270.695312 109.785156 C 263.3125 109.785156 257.328125 115.78125 257.328125 123.167969 L 257.328125 168.28125 C 145.675781 184.652344 105.566406 237.613281 91.277344 270.292969 L 83.523438 270.292969 C 76.136719 270.292969 70.144531 276.289062 70.144531 283.675781 C 70.144531 291.0625 76.136719 297.050781 83.523438 297.050781 L 83.71875 297.050781 C 83.84375 306.199219 84.050781 315.113281 84.304688 323.804688 L 30.035156 323.804688 C 22.652344 323.804688 16.667969 329.789062 16.667969 337.175781 C 16.667969 337.246094 16.679688 337.3125 16.679688 337.390625 L 16.671875 337.390625 C 16.679688 338.175781 17.09375 356.789062 26.933594 375.734375 C 35.8125 392.839844 53.949219 413.355469 90.191406 416.960938 C 109.4375 608.582031 163.746094 644.828125 163.746094 644.828125 L 511.347656 644.828125 C 511.347656 644.828125 567.398438 626.140625 585.808594 416.882812 C 621.453125 413.042969 639.355469 392.703125 648.167969 375.734375 C 658 356.789062 658.429688 338.175781 658.429688 337.390625 C 658.429688 337.3125 658.429688 337.246094 658.429688 337.175781 Z M 284.074219 136.539062 L 391.019531 136.539062 L 391.019531 166.539062 C 372.804688 164.441406 352.808594 163.292969 330.863281 163.292969 C 314.164062 163.292969 298.59375 163.960938 284.074219 165.195312 Z M 140.359375 246.105469 C 156.585938 230.246094 178.195312 217.507812 204.597656 208.25 C 239.019531 196.171875 281.507812 190.039062 330.863281 190.039062 C 380.226562 190.039062 422.707031 196.171875 457.136719 208.25 C 483.535156 217.507812 505.160156 230.242188 521.375 246.105469 C 529.933594 254.460938 536.082031 262.789062 540.511719 270.292969 L 510.175781 270.292969 C 503.984375 239.777344 477.035156 216.792969 444.71875 216.792969 C 419.613281 216.792969 397.753906 230.644531 386.316406 251.121094 C 374.136719 238.230469 356.882812 230.167969 337.746094 230.167969 C 318.484375 230.167969 301.132812 238.328125 288.941406 251.375 C 277.554688 230.761719 255.609375 216.792969 230.390625 216.792969 C 198.058594 216.792969 171.117188 239.777344 164.921875 270.292969 L 121.226562 270.292969 C 125.652344 262.789062 131.800781 254.460938 140.359375 246.105469 Z M 192.589844 270.292969 C 198.113281 254.726562 212.96875 243.550781 230.390625 243.550781 C 247.820312 243.550781 262.675781 254.726562 268.199219 270.292969 Z M 307.878906 270.292969 C 315.234375 262.09375 325.898438 256.921875 337.746094 256.921875 C 349.597656 256.921875 360.269531 262.09375 367.613281 270.292969 Z M 406.898438 270.292969 C 412.421875 254.726562 427.289062 243.550781 444.71875 243.550781 C 462.128906 243.550781 476.996094 254.726562 482.519531 270.292969 Z M 51.0625 364.15625 C 48.527344 359.453125 46.839844 354.722656 45.707031 350.546875 L 85.355469 350.546875 C 86.003906 364.171875 86.816406 377.203125 87.773438 389.648438 C 70.96875 386.746094 58.628906 378.203125 51.0625 364.15625 Z M 554.863281 455.03125 C 549.5 497.332031 541.976562 533.265625 532.535156 561.832031 C 520.53125 598.097656 508.585938 612.855469 503.21875 618.066406 L 232.429688 618.066406 C 160.847656 531.542969 163.695312 326.261719 163.734375 324.046875 L 163.722656 324.046875 C 163.722656 323.960938 163.734375 323.882812 163.734375 323.804688 C 163.734375 316.417969 157.75 310.421875 150.367188 310.421875 C 143.074219 310.421875 137.148438 316.277344 137.011719 323.550781 L 137 323.550781 C 136.960938 325.761719 136.097656 378.402344 144.679688 443.117188 C 154.753906 519.15625 173.117188 577.859375 199.339844 618.066406 L 174.722656 618.066406 C 168.394531 610.304688 156.730469 592.769531 145.089844 558.519531 C 134.972656 528.738281 126.90625 492.472656 121.128906 450.738281 C 114.878906 405.675781 111.296875 354.054688 110.453125 297.050781 L 564.675781 297.050781 C 563.914062 356.492188 560.625 409.53125 554.863281 455.03125 Z M 587.925781 389.566406 C 588.746094 377.164062 589.453125 364.171875 590 350.546875 L 629.40625 350.546875 C 628.347656 354.492188 626.742188 358.941406 624.429688 363.390625 C 616.988281 377.734375 604.726562 386.511719 587.925781 389.566406 Z M 587.925781 389.566406 " fill-opacity="1" fill-rule="nonzero"/></g><g clip-path="url(#id2)"><path fill="rgb(100%, 78.039551%, 0%)" d="M 465.011719 113.417969 C 467.929688 123.570312 473.585938 130.769531 474.214844 131.554688 C 476.683594 134.589844 480.40625 136.539062 484.632812 136.539062 C 492 136.539062 497.992188 130.554688 497.992188 123.167969 C 497.992188 119.984375 496.875 117.0625 495.015625 114.769531 L 495.035156 114.769531 C 495.015625 114.734375 492.117188 110.894531 490.726562 106.042969 C 489.078125 100.34375 490.078125 96.1875 494.09375 92.171875 C 504.964844 81.269531 508.53125 67.101562 504.21875 52.277344 C 501.28125 42.316406 495.660156 35.28125 494.9375 34.398438 L 494.917969 34.371094 C 492.46875 31.421875 488.765625 29.53125 484.632812 29.53125 C 477.230469 29.53125 471.238281 35.527344 471.238281 42.914062 C 471.238281 46.15625 472.414062 49.125 474.332031 51.445312 C 474.351562 51.472656 477.171875 55.128906 478.542969 59.792969 C 480.128906 65.257812 479.128906 69.296875 475.15625 73.292969 C 464.304688 84.175781 460.71875 98.421875 465.011719 113.417969 Z M 465.011719 113.417969 " fill-opacity="1" fill-rule="nonzero"/></g></svg>