<svg xmlns="http://www.w3.org/2000/svg" xmlns:xlink="http://www.w3.org/1999/xlink" width="900" zoomAndPan="magnify" viewBox="0 0 675 675.000002" height="900" preserveAspectRatio="xMidYMid meet" version="1.0"><defs><clipPath id="id1"><path d="M 16.03125 21.15625 L 584 21.15625 L 584 566 L 16.03125 566 Z M 16.03125 21.15625 " clip-rule="nonzero"/></clipPath><clipPath id="id2"><path d="M 294 298 L 650 298 L 650 652.472656 L 294 652.472656 Z M 294 298 " clip-rule="nonzero"/></clipPath></defs><g clip-path="url(#id1)"><path fill="rgb(100%, 78.039551%, 0%)" d="M 38.238281 170.707031 L 91.710938 170.707031 L 91.710938 218.777344 C 91.710938 233.507812 79.71875 245.480469 64.972656 245.480469 C 50.226562 245.480469 38.238281 233.507812 38.238281 218.777344 Z M 59.625 266.304688 L 59.625 266.847656 L 145.179688 266.847656 L 145.179688 245.480469 L 104.953125 245.480469 C 110.089844 237.84375 113.097656 228.664062 113.097656 218.777344 L 113.097656 69.226562 C 113.097656 54.496094 125.085938 42.519531 139.832031 42.519531 C 154.582031 42.519531 166.570312 54.496094 166.570312 69.226562 L 166.570312 517.875 C 166.570312 544.371094 188.167969 565.945312 214.695312 565.945312 L 326.984375 565.945312 L 326.984375 544.582031 L 254.671875 544.582031 C 259.976562 536.777344 262.820312 527.558594 262.820312 517.875 L 262.820312 469.804688 L 423.234375 469.804688 L 423.234375 448.441406 L 252.125 448.441406 C 246.234375 448.441406 241.429688 453.242188 241.429688 459.125 L 241.429688 517.875 C 241.429688 525.011719 238.628906 531.6875 233.492188 536.777344 C 228.519531 541.785156 221.835938 544.582031 214.695312 544.582031 C 199.949219 544.582031 187.957031 532.605469 187.957031 517.875 L 187.957031 69.226562 C 187.957031 59.335938 184.949219 50.15625 179.8125 42.519531 L 540.871094 42.519531 C 554.28125 42.519531 562.257812 54.496094 562.257812 74.566406 L 562.257812 309.574219 L 583.648438 309.574219 L 583.648438 74.566406 C 583.648438 37.679688 562.175781 21.15625 540.871094 21.15625 L 145.179688 21.15625 L 145.179688 21.699219 C 143.425781 21.492188 141.671875 21.15625 139.832031 21.15625 C 113.308594 21.15625 91.710938 42.730469 91.710938 69.226562 L 91.710938 149.34375 L 27.542969 149.34375 C 21.652344 149.34375 16.847656 154.140625 16.847656 160.023438 L 16.847656 218.777344 C 16.847656 243.4375 35.648438 263.632812 59.625 266.304688 " fill-opacity="1" fill-rule="nonzero"/></g><path fill="rgb(100%, 78.039551%, 0%)" d="M 647.8125 448.441406 L 583.648438 448.441406 L 583.648438 437.761719 L 562.257812 437.761719 L 562.257812 448.441406 L 551.566406 448.441406 L 551.566406 469.804688 L 637.121094 469.804688 L 637.121094 523.21875 C 637.121094 534.984375 627.511719 544.582031 615.730469 544.582031 L 466.011719 544.582031 L 466.011719 565.945312 L 615.730469 565.945312 C 639.332031 565.945312 658.507812 546.792969 658.507812 523.21875 L 658.507812 459.125 C 658.507812 453.242188 653.703125 448.441406 647.8125 448.441406 " fill-opacity="1" fill-rule="nonzero"/><path fill="rgb(100%, 78.039551%, 0%)" d="M 530.175781 95.929688 L 316.289062 95.929688 L 316.289062 117.296875 L 530.175781 117.296875 L 530.175781 95.929688 " fill-opacity="1" fill-rule="nonzero"/><path fill="rgb(100%, 78.039551%, 0%)" d="M 275.644531 68.183594 L 250.953125 101.023438 L 238.296875 88.378906 L 223.175781 103.484375 L 244.5625 124.847656 C 246.566406 126.851562 249.285156 127.976562 252.125 127.976562 L 252.875 127.9375 C 255.96875 127.726562 258.808594 126.183594 260.6875 123.679688 L 292.769531 80.953125 L 275.644531 68.183594 " fill-opacity="1" fill-rule="nonzero"/><path fill="rgb(100%, 78.039551%, 0%)" d="M 316.289062 213.433594 L 530.175781 213.433594 L 530.175781 192.070312 L 316.289062 192.070312 L 316.289062 213.433594 " fill-opacity="1" fill-rule="nonzero"/><path fill="rgb(100%, 78.039551%, 0%)" d="M 275.644531 164.324219 L 250.953125 197.160156 L 238.296875 184.519531 L 223.175781 199.625 L 244.5625 220.988281 C 246.566406 222.992188 249.285156 224.117188 252.125 224.117188 L 252.875 224.074219 C 255.96875 223.867188 258.808594 222.324219 260.6875 219.820312 L 292.769531 177.089844 L 275.644531 164.324219 " fill-opacity="1" fill-rule="nonzero"/><path fill="rgb(100%, 78.039551%, 0%)" d="M 316.289062 309.574219 L 530.175781 309.574219 L 530.175781 288.210938 L 316.289062 288.210938 L 316.289062 309.574219 " fill-opacity="1" fill-rule="nonzero"/><path fill="rgb(100%, 78.039551%, 0%)" d="M 275.644531 260.460938 L 250.953125 293.300781 L 238.296875 280.65625 L 223.175781 295.761719 L 244.5625 317.128906 C 246.566406 319.128906 249.285156 320.257812 252.125 320.257812 L 252.875 320.214844 C 255.96875 320.007812 258.808594 318.460938 260.6875 315.957031 L 292.769531 273.230469 L 275.644531 260.460938 " fill-opacity="1" fill-rule="nonzero"/><g clip-path="url(#id2)"><path fill="rgb(100%, 78.039551%, 0%)" d="M 608.085938 324.679688 L 623.207031 339.785156 L 608.085938 354.890625 L 592.964844 339.785156 Z M 358.523438 604.167969 L 343.402344 589.0625 L 358.523438 573.914062 L 366.085938 581.511719 L 381.207031 566.40625 L 373.648438 558.851562 L 577.839844 354.890625 L 592.964844 369.996094 Z M 325.980469 621.566406 L 331.914062 607.757812 L 335.839844 611.71875 L 339.808594 615.683594 Z M 316.289062 405.714844 L 496.714844 405.714844 L 320.71875 581.511719 L 320.46875 581.84375 C 319.671875 582.761719 318.921875 583.722656 318.460938 584.847656 L 318.421875 584.972656 L 295.777344 637.714844 C 294.023438 641.722656 294.941406 646.394531 298.035156 649.484375 C 300.082031 651.527344 302.796875 652.613281 305.59375 652.613281 C 307.015625 652.613281 308.4375 652.320312 309.816406 651.738281 L 362.535156 629.164062 L 362.578125 629.164062 L 362.742188 629.078125 C 363.871094 628.578125 364.832031 627.867188 365.75 627.035156 L 366.085938 626.824219 L 645.890625 347.335938 C 650.070312 343.164062 650.070312 336.40625 645.890625 332.230469 L 615.648438 302.023438 C 611.46875 297.847656 604.703125 297.847656 600.523438 302.023438 L 518.101562 384.347656 L 316.289062 384.347656 L 316.289062 405.714844 " fill-opacity="1" fill-rule="nonzero"/></g><path fill="rgb(100%, 78.039551%, 0%)" d="M 238.296875 376.796875 L 223.175781 391.902344 L 244.5625 413.265625 C 246.566406 415.269531 249.285156 416.394531 252.125 416.394531 L 252.875 416.355469 C 255.96875 416.144531 258.808594 414.601562 260.6875 412.097656 L 292.769531 369.371094 L 275.644531 356.601562 L 250.953125 389.441406 L 238.296875 376.796875 " fill-opacity="1" fill-rule="nonzero"/></svg>