<svg xmlns="http://www.w3.org/2000/svg" xmlns:xlink="http://www.w3.org/1999/xlink" width="400" zoomAndPan="magnify" viewBox="0 0 300 299.999988" height="400" preserveAspectRatio="xMidYMid meet" version="1.0"><defs><clipPath id="id1"><path d="M 3.835938 1.917969 L 300 1.917969 L 300 298.167969 L 3.835938 298.167969 Z M 3.835938 1.917969 " clip-rule="nonzero"/></clipPath></defs><path fill="rgb(41.178894%, 83.918762%, 95.689392%)" d="M 290.25 292.867188 L 290.53125 293.390625 L 13.394531 293.390625 L 13.671875 292.867188 C 18.507812 283.125 24.292969 274.089844 30.917969 265.820312 L 31.03125 265.859375 C 34.464844 270.9375 40.25 274.277344 46.839844 274.277344 C 57.40625 274.277344 65.953125 265.726562 65.953125 255.164062 C 65.953125 248.667969 62.707031 242.9375 57.742188 239.484375 C 67.632812 231.851562 78.382812 225.449219 89.84375 220.429688 L 89.84375 260.128906 C 89.84375 267.96875 96.152344 274.277344 103.992188 274.277344 C 104.125 274.277344 104.273438 274.277344 104.367188 274.277344 C 112.203125 274.277344 118.515625 267.96875 118.515625 260.128906 C 118.515625 267.96875 124.824219 274.277344 132.660156 274.277344 L 133.035156 274.277344 C 140.820312 274.277344 147.183594 267.96875 147.183594 260.128906 L 147.183594 207.476562 C 148.769531 207.4375 150.375 207.382812 151.960938 207.382812 C 161.238281 207.382812 170.402344 208.183594 179.34375 209.828125 L 175.910156 254.828125 C 175.851562 255.070312 175.851562 255.257812 175.851562 255.5 C 175.851562 260.613281 179.957031 264.71875 185.074219 264.71875 L 186.453125 264.71875 C 191.230469 264.71875 195.246094 261.042969 195.636719 256.210938 L 198.828125 214.640625 C 216.953125 220.429688 233.902344 229.5 248.664062 241.40625 C 245.042969 244.878906 242.746094 249.769531 242.746094 255.164062 C 242.746094 265.726562 251.296875 274.277344 261.859375 274.277344 C 267.066406 274.277344 271.808594 272.167969 275.242188 268.789062 C 280.972656 276.238281 285.996094 284.320312 290.25 292.867188 " fill-opacity="1" fill-rule="nonzero"/><path fill="rgb(62.748718%, 83.139038%, 40.779114%)" d="M 65.953125 255.164062 C 65.953125 265.726562 57.40625 274.277344 46.839844 274.277344 C 40.25 274.277344 34.464844 270.9375 31.03125 265.859375 L 30.917969 265.820312 C 38.757812 255.875 47.792969 247.042969 57.742188 239.484375 C 62.707031 242.9375 65.953125 248.667969 65.953125 255.164062 " fill-opacity="1" fill-rule="nonzero"/><path fill="rgb(62.748718%, 83.139038%, 40.779114%)" d="M 275.242188 268.789062 C 271.808594 272.167969 267.066406 274.277344 261.859375 274.277344 C 251.296875 274.277344 242.746094 265.726562 242.746094 255.164062 C 242.746094 249.769531 245.042969 244.878906 248.664062 241.40625 C 258.558594 249.285156 267.496094 258.46875 275.242188 268.789062 " fill-opacity="1" fill-rule="nonzero"/><path fill="rgb(90.19928%, 91.369629%, 92.939758%)" d="M 295.308594 16.253906 L 295.308594 83.148438 L 208.90625 83.148438 L 214.023438 16.589844 C 214.078125 16.441406 214.078125 16.347656 214.078125 16.253906 L 295.308594 16.253906 " fill-opacity="1" fill-rule="nonzero"/><path fill="rgb(81.17981%, 61.959839%, 46.269226%)" d="M 195.636719 256.210938 C 195.246094 261.042969 191.230469 264.71875 186.453125 264.71875 L 185.074219 264.71875 C 179.957031 264.71875 175.851562 260.613281 175.851562 255.5 C 175.851562 255.257812 175.851562 255.070312 175.910156 254.828125 L 179.34375 209.828125 L 183.878906 150.566406 L 186.117188 121.839844 L 194.292969 15.207031 C 194.683594 10.375 198.699219 6.695312 203.476562 6.695312 L 204.859375 6.695312 C 209.972656 6.695312 214.078125 10.800781 214.078125 15.917969 C 214.078125 16.066406 214.078125 16.160156 214.078125 16.253906 C 214.078125 16.347656 214.078125 16.441406 214.023438 16.589844 L 208.90625 83.148438 L 205.007812 134.421875 L 202.84375 162.230469 L 198.828125 214.640625 L 195.636719 256.210938 " fill-opacity="1" fill-rule="nonzero"/><path fill="rgb(51.368713%, 56.079102%, 60.778809%)" d="M 147.183594 207.476562 L 147.183594 260.128906 C 147.183594 267.96875 140.820312 274.277344 133.035156 274.277344 L 132.660156 274.277344 C 124.824219 274.277344 118.515625 267.96875 118.515625 260.128906 L 118.515625 173.933594 L 147.183594 173.933594 L 147.183594 207.476562 " fill-opacity="1" fill-rule="nonzero"/><path fill="rgb(51.368713%, 56.079102%, 60.778809%)" d="M 118.515625 173.933594 L 118.515625 260.128906 C 118.515625 267.96875 112.203125 274.277344 104.367188 274.277344 C 104.273438 274.277344 104.125 274.277344 103.992188 274.277344 C 96.152344 274.277344 89.84375 267.96875 89.84375 260.128906 L 89.84375 173.933594 L 118.515625 173.933594 " fill-opacity="1" fill-rule="nonzero"/><path fill="rgb(98.81897%, 84.309387%, 43.919373%)" d="M 228.414062 156.015625 L 228.414062 157.976562 C 228.414062 161.035156 227.164062 163.855469 225.109375 165.851562 C 223.113281 167.90625 220.292969 169.15625 217.234375 169.15625 C 215.179688 169.15625 213.125 168.578125 211.410156 167.496094 L 202.84375 162.230469 L 205.007812 134.421875 L 223.449219 146.738281 C 226.546875 148.792969 228.414062 152.28125 228.414062 156.015625 " fill-opacity="1" fill-rule="nonzero"/><path fill="rgb(98.81897%, 84.309387%, 43.919373%)" d="M 186.117188 121.839844 L 183.878906 150.566406 L 151.960938 130.929688 L 147.183594 130.929688 L 147.183594 173.933594 L 89.84375 173.933594 L 89.84375 141.738281 C 89.84375 132.03125 84.917969 122.960938 76.761719 117.695312 L 13.730469 76.894531 C 10.519531 74.84375 8.613281 71.296875 8.613281 67.527344 L 8.613281 65.660156 C 8.613281 59.5 13.636719 54.480469 19.792969 54.480469 C 21.847656 54.480469 23.902344 55.058594 25.617188 56.140625 L 73.550781 85.628906 C 81.089844 90.257812 89.75 92.703125 98.597656 92.703125 L 112.539062 92.703125 L 108.957031 130.929688 L 118.515625 145.265625 L 128.070312 130.929688 L 124.488281 92.703125 L 127.921875 92.703125 C 137.382812 92.703125 146.605469 95.484375 154.445312 100.730469 L 186.117188 121.839844 " fill-opacity="1" fill-rule="nonzero"/><path fill="rgb(90.19928%, 91.369629%, 92.939758%)" d="M 124.488281 92.703125 L 128.070312 130.929688 L 118.515625 145.265625 L 108.957031 130.929688 L 112.539062 92.703125 L 124.488281 92.703125 " fill-opacity="1" fill-rule="nonzero"/><path fill="rgb(94.119263%, 81.568909%, 70.588684%)" d="M 118.515625 25.808594 C 137.011719 25.808594 151.960938 40.761719 151.960938 59.257812 C 151.960938 77.753906 137.011719 92.703125 118.515625 92.703125 C 100.015625 92.703125 85.066406 77.753906 85.066406 59.257812 C 85.066406 40.761719 100.015625 25.808594 118.515625 25.808594 " fill-opacity="1" fill-rule="nonzero"/><g clip-path="url(#id1)"><path fill="rgb(0%, 0%, 0%)" d="M 220.796875 150.695312 C 222.570312 151.890625 223.632812 153.871094 223.632812 156.015625 L 223.632812 157.976562 C 223.632812 161.503906 220.761719 164.378906 217.234375 164.378906 C 216.058594 164.378906 214.898438 164.042969 213.890625 163.425781 L 207.84375 159.710938 L 209.132812 142.933594 Z M 241.871094 242.230469 C 239.351562 246.054688 237.96875 250.480469 237.96875 255.164062 C 237.96875 268.339844 248.683594 279.054688 261.859375 279.054688 C 266.304688 279.054688 270.539062 277.785156 274.253906 275.507812 C 277.242188 279.726562 280.058594 284.074219 282.597656 288.613281 L 21.324219 288.613281 C 24.332031 283.273438 27.726562 278.214844 31.347656 273.304688 C 35.621094 276.964844 41.074219 279.054688 46.839844 279.054688 C 60.019531 279.054688 70.730469 268.339844 70.730469 255.164062 C 70.730469 249.566406 68.714844 244.226562 65.226562 239.988281 C 71.496094 235.511719 78.121094 231.515625 85.066406 228.0625 L 85.066406 260.148438 C 85.066406 270.582031 93.539062 279.054688 104.382812 279.054688 C 110.039062 279.054688 115.0625 276.515625 118.53125 272.558594 C 122.042969 276.515625 127.175781 279.054688 133.054688 279.054688 C 143.46875 279.054688 151.941406 270.582031 151.941406 260.148438 L 151.960938 212.214844 C 159.390625 212.214844 166.875 212.777344 174.230469 213.878906 L 171.113281 254.4375 C 171.09375 254.808594 171.074219 255.164062 171.074219 255.519531 C 171.074219 263.226562 177.34375 269.5 185.054688 269.5 L 186.433594 269.5 C 193.695312 269.5 199.835938 263.824219 200.378906 256.601562 L 203.101562 221.175781 C 217.046875 226.253906 230.09375 233.402344 241.871094 242.230469 Z M 268.410156 267.835938 C 266.394531 268.882812 264.175781 269.5 261.859375 269.5 C 253.945312 269.5 247.527344 263.078125 247.527344 255.164062 C 247.527344 252.71875 248.214844 250.386719 249.375 248.296875 C 256.296875 254.210938 262.664062 260.746094 268.410156 267.835938 Z M 57.609375 245.757812 C 59.886719 248.332031 61.175781 251.671875 61.175781 255.164062 C 61.175781 263.078125 54.753906 269.5 46.839844 269.5 C 43.257812 269.5 39.839844 268.15625 37.226562 265.785156 C 43.386719 258.46875 50.199219 251.765625 57.609375 245.757812 Z M 79.335938 113.664062 L 16.324219 72.882812 C 14.492188 71.6875 13.394531 69.691406 13.394531 67.507812 L 13.394531 65.660156 C 13.394531 62.132812 16.265625 59.257812 19.792969 59.257812 C 20.972656 59.257812 22.128906 59.59375 23.136719 60.207031 L 71.046875 89.679688 C 79.335938 94.777344 88.855469 97.484375 98.597656 97.484375 L 107.296875 97.484375 L 104.046875 132.179688 L 118.515625 153.871094 L 132.980469 132.179688 L 129.75 97.613281 C 137.609375 97.949219 145.203125 100.320312 151.792969 104.707031 L 181.132812 124.265625 L 179.734375 142.410156 L 153.304688 126.152344 L 142.40625 126.152344 L 142.40625 169.15625 L 94.621094 169.15625 L 94.621094 141.757812 C 94.621094 130.351562 88.910156 119.84375 79.335938 113.664062 Z M 89.84375 59.257812 C 89.84375 43.449219 102.703125 30.585938 118.515625 30.585938 C 134.324219 30.585938 147.183594 43.449219 147.183594 59.257812 C 147.183594 75.066406 134.324219 87.925781 118.515625 87.925781 C 102.703125 87.925781 89.84375 75.066406 89.84375 59.257812 Z M 123.160156 129.679688 L 118.515625 136.660156 L 113.867188 129.679688 L 116.890625 97.484375 L 120.136719 97.484375 Z M 113.734375 260.148438 C 113.734375 265.300781 109.535156 269.5 103.972656 269.5 C 98.820312 269.5 94.621094 265.300781 94.621094 260.148438 L 94.621094 178.710938 L 113.734375 178.710938 Z M 123.292969 260.148438 L 123.292969 178.710938 L 142.40625 178.710938 L 142.386719 260.148438 C 142.386719 265.316406 138.207031 269.5 132.644531 269.5 C 127.492188 269.5 123.292969 265.316406 123.292969 260.148438 Z M 174.976562 204.320312 C 167.359375 203.199219 159.652344 202.640625 151.960938 202.660156 L 151.960938 136.53125 L 178.914062 153.121094 Z M 199.070312 15.5625 C 199.257812 13.265625 201.179688 11.476562 203.496094 11.476562 L 204.875 11.476562 C 207.320312 11.476562 209.300781 13.453125 209.28125 16.234375 L 190.859375 255.855469 C 190.671875 258.152344 188.75 259.941406 186.433594 259.941406 L 185.054688 259.941406 C 182.609375 259.941406 180.628906 257.964844 180.648438 255.183594 Z M 290.53125 78.371094 L 214.097656 78.371094 L 218.5 21.03125 L 290.53125 21.03125 Z M 300.085938 87.925781 L 300.085938 11.476562 L 218.074219 11.476562 C 216.207031 5.949219 211.035156 1.917969 204.875 1.917969 L 203.496094 1.917969 C 196.234375 1.917969 190.09375 7.59375 189.550781 14.835938 L 181.972656 113.347656 L 157.09375 96.753906 C 152.277344 93.542969 147.015625 91.191406 141.492188 89.738281 C 150.730469 82.738281 156.738281 71.707031 156.738281 59.257812 C 156.738281 38.183594 139.585938 21.03125 118.515625 21.03125 C 97.441406 21.03125 80.289062 38.183594 80.289062 59.257812 C 80.289062 70.457031 85.179688 80.535156 92.886719 87.535156 C 86.933594 86.730469 81.203125 84.714844 76.050781 81.542969 L 28.136719 52.070312 C 25.636719 50.523438 22.742188 49.699219 19.792969 49.699219 C 10.984375 49.699219 3.835938 56.847656 3.835938 65.660156 L 3.835938 67.507812 C 3.835938 72.9375 6.5625 77.941406 11.117188 80.910156 L 74.148438 121.691406 C 80.980469 126.113281 85.066406 133.597656 85.066406 141.757812 L 85.066406 217.367188 C 52.347656 232.503906 25.523438 258.429688 9.378906 290.722656 L 5.664062 298.167969 L 298.257812 298.167969 L 294.542969 290.722656 C 275.972656 253.578125 243.046875 224.851562 203.867188 211.339844 L 207.003906 170.425781 L 208.890625 171.5625 C 211.390625 173.113281 214.285156 173.933594 217.234375 173.933594 C 226.042969 173.933594 233.191406 166.785156 233.191406 157.976562 L 233.191406 156.015625 C 233.191406 150.679688 230.539062 145.714844 226.097656 142.746094 L 209.972656 131.996094 L 213.351562 87.925781 L 300.085938 87.925781 " fill-opacity="1" fill-rule="nonzero"/></g><path fill="rgb(0%, 0%, 0%)" d="M 280.972656 30.585938 L 271.417969 30.585938 L 271.417969 40.144531 L 280.972656 40.144531 L 280.972656 30.585938 " fill-opacity="1" fill-rule="nonzero"/><path fill="rgb(0%, 0%, 0%)" d="M 261.859375 30.585938 L 252.304688 30.585938 L 252.304688 40.144531 L 261.859375 40.144531 L 261.859375 30.585938 " fill-opacity="1" fill-rule="nonzero"/><path fill="rgb(0%, 0%, 0%)" d="M 242.746094 40.144531 L 242.746094 30.585938 L 233.191406 30.585938 L 233.191406 40.144531 L 242.746094 40.144531 " fill-opacity="1" fill-rule="nonzero"/><path fill="rgb(0%, 0%, 0%)" d="M 228.414062 245.609375 L 218.855469 245.609375 L 218.855469 255.164062 L 228.414062 255.164062 L 228.414062 245.609375 " fill-opacity="1" fill-rule="nonzero"/><path fill="rgb(0%, 0%, 0%)" d="M 214.078125 269.5 L 204.523438 269.5 L 204.523438 279.054688 L 214.078125 279.054688 L 214.078125 269.5 " fill-opacity="1" fill-rule="nonzero"/></svg>