<svg xmlns="http://www.w3.org/2000/svg" xmlns:xlink="http://www.w3.org/1999/xlink" width="400" zoomAndPan="magnify" viewBox="0 0 300 299.999988" height="400" preserveAspectRatio="xMidYMid meet" version="1.0"><defs><clipPath id="id1"><path d="M 75 18.394531 L 133 18.394531 L 133 76 L 75 76 Z M 75 18.394531 " clip-rule="nonzero"/></clipPath><clipPath id="id2"><path d="M 165 18.394531 L 223 18.394531 L 223 76 L 165 76 Z M 165 18.394531 " clip-rule="nonzero"/></clipPath><clipPath id="id3"><path d="M 98 195 L 202 195 L 202 281.644531 L 98 281.644531 Z M 98 195 " clip-rule="nonzero"/></clipPath><clipPath id="id4"><path d="M 6.953125 161 L 109 161 L 109 248 L 6.953125 248 Z M 6.953125 161 " clip-rule="nonzero"/></clipPath><clipPath id="id5"><path d="M 191 161 L 292.703125 161 L 292.703125 248 L 191 248 Z M 191 161 " clip-rule="nonzero"/></clipPath></defs><g clip-path="url(#id1)"><path fill="rgb(0%, 0%, 0%)" d="M 132.679688 47.007812 C 132.679688 47.945312 132.636719 48.882812 132.542969 49.8125 C 132.453125 50.746094 132.316406 51.671875 132.132812 52.59375 C 131.949219 53.511719 131.722656 54.417969 131.449219 55.316406 C 131.179688 56.210938 130.863281 57.09375 130.507812 57.960938 C 130.148438 58.824219 129.75 59.671875 129.308594 60.5 C 128.867188 61.324219 128.386719 62.128906 127.867188 62.90625 C 127.347656 63.6875 126.789062 64.4375 126.195312 65.164062 C 125.601562 65.886719 124.972656 66.582031 124.3125 67.242188 C 123.648438 67.90625 122.957031 68.535156 122.234375 69.128906 C 121.511719 69.722656 120.761719 70.28125 119.980469 70.800781 C 119.203125 71.320312 118.402344 71.804688 117.578125 72.246094 C 116.75 72.6875 115.90625 73.085938 115.042969 73.445312 C 114.175781 73.804688 113.296875 74.121094 112.402344 74.390625 C 111.503906 74.664062 110.597656 74.890625 109.679688 75.074219 C 108.761719 75.257812 107.839844 75.394531 106.90625 75.484375 C 105.976562 75.578125 105.042969 75.625 104.105469 75.625 C 103.171875 75.625 102.238281 75.578125 101.304688 75.484375 C 100.375 75.394531 99.449219 75.257812 98.53125 75.074219 C 97.613281 74.890625 96.707031 74.664062 95.8125 74.390625 C 94.914062 74.121094 94.035156 73.804688 93.171875 73.445312 C 92.304688 73.085938 91.460938 72.6875 90.636719 72.246094 C 89.8125 71.804688 89.007812 71.320312 88.230469 70.800781 C 87.453125 70.28125 86.703125 69.722656 85.980469 69.128906 C 85.253906 68.535156 84.5625 67.90625 83.902344 67.242188 C 83.238281 66.582031 82.613281 65.886719 82.019531 65.164062 C 81.425781 64.4375 80.867188 63.6875 80.347656 62.90625 C 79.828125 62.128906 79.347656 61.324219 78.90625 60.5 C 78.464844 59.671875 78.066406 58.824219 77.707031 57.960938 C 77.347656 57.09375 77.035156 56.210938 76.761719 55.316406 C 76.488281 54.417969 76.261719 53.511719 76.082031 52.59375 C 75.898438 51.671875 75.761719 50.746094 75.667969 49.8125 C 75.578125 48.882812 75.53125 47.945312 75.53125 47.007812 C 75.53125 46.074219 75.578125 45.136719 75.667969 44.203125 C 75.761719 43.273438 75.898438 42.347656 76.082031 41.425781 C 76.261719 40.507812 76.488281 39.601562 76.761719 38.703125 C 77.035156 37.804688 77.347656 36.925781 77.707031 36.058594 C 78.066406 35.195312 78.464844 34.347656 78.90625 33.519531 C 79.347656 32.695312 79.828125 31.890625 80.347656 31.113281 C 80.867188 30.332031 81.425781 29.582031 82.019531 28.855469 C 82.613281 28.132812 83.238281 27.4375 83.902344 26.777344 C 84.5625 26.113281 85.253906 25.484375 85.980469 24.890625 C 86.703125 24.296875 87.453125 23.738281 88.230469 23.21875 C 89.007812 22.695312 89.8125 22.214844 90.636719 21.773438 C 91.460938 21.332031 92.304688 20.933594 93.171875 20.574219 C 94.035156 20.214844 94.914062 19.898438 95.8125 19.628906 C 96.707031 19.355469 97.613281 19.128906 98.53125 18.945312 C 99.449219 18.761719 100.375 18.625 101.304688 18.535156 C 102.238281 18.441406 103.171875 18.394531 104.105469 18.394531 C 105.042969 18.394531 105.976562 18.441406 106.90625 18.535156 C 107.839844 18.625 108.761719 18.761719 109.679688 18.945312 C 110.597656 19.128906 111.503906 19.355469 112.402344 19.628906 C 113.296875 19.898438 114.175781 20.214844 115.042969 20.574219 C 115.90625 20.933594 116.75 21.332031 117.578125 21.773438 C 118.402344 22.214844 119.203125 22.695312 119.980469 23.21875 C 120.761719 23.738281 121.511719 24.296875 122.234375 24.890625 C 122.957031 25.484375 123.648438 26.113281 124.3125 26.777344 C 124.972656 27.4375 125.601562 28.132812 126.195312 28.855469 C 126.789062 29.582031 127.347656 30.332031 127.867188 31.113281 C 128.386719 31.890625 128.867188 32.695312 129.308594 33.519531 C 129.75 34.347656 130.148438 35.195312 130.507812 36.058594 C 130.863281 36.925781 131.179688 37.804688 131.449219 38.703125 C 131.722656 39.601562 131.949219 40.507812 132.132812 41.425781 C 132.316406 42.347656 132.453125 43.273438 132.542969 44.203125 C 132.636719 45.136719 132.679688 46.074219 132.679688 47.007812 Z M 132.679688 47.007812 " fill-opacity="1" fill-rule="nonzero"/></g><g clip-path="url(#id2)"><path fill="rgb(0%, 0%, 0%)" d="M 222.976562 47.007812 C 222.976562 47.945312 222.933594 48.882812 222.839844 49.8125 C 222.75 50.746094 222.613281 51.671875 222.429688 52.59375 C 222.246094 53.511719 222.019531 54.417969 221.746094 55.316406 C 221.476562 56.210938 221.160156 57.09375 220.804688 57.960938 C 220.445312 58.824219 220.046875 59.671875 219.605469 60.5 C 219.164062 61.324219 218.683594 62.128906 218.164062 62.90625 C 217.644531 63.6875 217.085938 64.4375 216.492188 65.164062 C 215.898438 65.886719 215.269531 66.582031 214.609375 67.242188 C 213.945312 67.90625 213.253906 68.535156 212.53125 69.128906 C 211.808594 69.722656 211.058594 70.28125 210.277344 70.800781 C 209.5 71.320312 208.699219 71.804688 207.875 72.246094 C 207.046875 72.6875 206.203125 73.085938 205.339844 73.445312 C 204.472656 73.804688 203.59375 74.121094 202.699219 74.390625 C 201.800781 74.664062 200.894531 74.890625 199.976562 75.074219 C 199.058594 75.257812 198.136719 75.394531 197.203125 75.484375 C 196.273438 75.578125 195.339844 75.625 194.402344 75.625 C 193.46875 75.625 192.535156 75.578125 191.601562 75.484375 C 190.671875 75.394531 189.746094 75.257812 188.828125 75.074219 C 187.910156 74.890625 187.003906 74.664062 186.109375 74.390625 C 185.214844 74.121094 184.332031 73.804688 183.46875 73.445312 C 182.605469 73.085938 181.757812 72.6875 180.933594 72.246094 C 180.109375 71.804688 179.304688 71.320312 178.527344 70.800781 C 177.75 70.28125 177 69.722656 176.277344 69.128906 C 175.550781 68.535156 174.859375 67.90625 174.199219 67.242188 C 173.535156 66.582031 172.910156 65.886719 172.316406 65.164062 C 171.722656 64.4375 171.164062 63.6875 170.644531 62.90625 C 170.125 62.128906 169.644531 61.324219 169.203125 60.5 C 168.761719 59.671875 168.363281 58.824219 168.003906 57.960938 C 167.644531 57.09375 167.332031 56.210938 167.058594 55.316406 C 166.789062 54.417969 166.558594 53.511719 166.378906 52.59375 C 166.195312 51.671875 166.058594 50.746094 165.964844 49.8125 C 165.875 48.882812 165.828125 47.945312 165.828125 47.007812 C 165.828125 46.074219 165.875 45.136719 165.964844 44.203125 C 166.058594 43.273438 166.195312 42.347656 166.378906 41.425781 C 166.558594 40.507812 166.789062 39.601562 167.058594 38.703125 C 167.332031 37.804688 167.644531 36.925781 168.003906 36.058594 C 168.363281 35.195312 168.761719 34.347656 169.203125 33.519531 C 169.644531 32.695312 170.125 31.890625 170.644531 31.113281 C 171.164062 30.332031 171.722656 29.582031 172.316406 28.855469 C 172.910156 28.132812 173.535156 27.4375 174.199219 26.777344 C 174.859375 26.113281 175.550781 25.484375 176.277344 24.890625 C 177 24.296875 177.75 23.738281 178.527344 23.21875 C 179.304688 22.695312 180.109375 22.214844 180.933594 21.773438 C 181.757812 21.332031 182.605469 20.933594 183.46875 20.574219 C 184.332031 20.214844 185.214844 19.898438 186.109375 19.628906 C 187.003906 19.355469 187.910156 19.128906 188.828125 18.945312 C 189.746094 18.761719 190.671875 18.625 191.601562 18.535156 C 192.535156 18.441406 193.46875 18.394531 194.402344 18.394531 C 195.339844 18.394531 196.273438 18.441406 197.203125 18.535156 C 198.136719 18.625 199.058594 18.761719 199.976562 18.945312 C 200.894531 19.128906 201.800781 19.355469 202.699219 19.628906 C 203.59375 19.898438 204.472656 20.214844 205.339844 20.574219 C 206.203125 20.933594 207.046875 21.332031 207.875 21.773438 C 208.699219 22.214844 209.5 22.695312 210.277344 23.21875 C 211.058594 23.738281 211.808594 24.296875 212.53125 24.890625 C 213.253906 25.484375 213.945312 26.113281 214.609375 26.777344 C 215.269531 27.4375 215.898438 28.132812 216.492188 28.855469 C 217.085938 29.582031 217.644531 30.332031 218.164062 31.113281 C 218.683594 31.890625 219.164062 32.695312 219.605469 33.519531 C 220.046875 34.347656 220.445312 35.195312 220.804688 36.058594 C 221.160156 36.925781 221.476562 37.804688 221.746094 38.703125 C 222.019531 39.601562 222.246094 40.507812 222.429688 41.425781 C 222.613281 42.347656 222.75 43.273438 222.839844 44.203125 C 222.933594 45.136719 222.976562 46.074219 222.976562 47.007812 Z M 222.976562 47.007812 " fill-opacity="1" fill-rule="nonzero"/></g><path fill="rgb(0%, 0%, 0%)" d="M 184.269531 155.898438 C 184.269531 157.023438 184.214844 158.144531 184.105469 159.261719 C 183.996094 160.382812 183.832031 161.492188 183.613281 162.597656 C 183.394531 163.699219 183.121094 164.789062 182.792969 165.863281 C 182.46875 166.941406 182.089844 168 181.660156 169.039062 C 181.230469 170.078125 180.75 171.09375 180.222656 172.082031 C 179.691406 173.074219 179.117188 174.039062 178.492188 174.972656 C 177.867188 175.910156 177.199219 176.8125 176.488281 177.679688 C 175.773438 178.550781 175.023438 179.382812 174.226562 180.175781 C 173.433594 180.972656 172.601562 181.726562 171.734375 182.441406 C 170.867188 183.152344 169.964844 183.824219 169.03125 184.449219 C 168.097656 185.074219 167.136719 185.648438 166.144531 186.179688 C 165.15625 186.710938 164.140625 187.191406 163.101562 187.621094 C 162.066406 188.050781 161.007812 188.429688 159.933594 188.757812 C 158.859375 189.082031 157.773438 189.355469 156.671875 189.574219 C 155.570312 189.792969 154.460938 189.957031 153.339844 190.070312 C 152.222656 190.179688 151.105469 190.234375 149.980469 190.234375 C 148.859375 190.234375 147.738281 190.179688 146.621094 190.070312 C 145.503906 189.957031 144.390625 189.792969 143.292969 189.574219 C 142.191406 189.355469 141.101562 189.082031 140.027344 188.757812 C 138.953125 188.429688 137.894531 188.050781 136.859375 187.621094 C 135.820312 187.191406 134.808594 186.710938 133.816406 186.179688 C 132.824219 185.648438 131.863281 185.074219 130.929688 184.449219 C 129.996094 183.824219 129.09375 183.152344 128.226562 182.441406 C 127.359375 181.726562 126.527344 180.972656 125.734375 180.175781 C 124.941406 179.382812 124.1875 178.550781 123.472656 177.679688 C 122.761719 176.8125 122.09375 175.910156 121.46875 174.972656 C 120.84375 174.039062 120.269531 173.074219 119.738281 172.082031 C 119.210938 171.09375 118.730469 170.078125 118.300781 169.039062 C 117.871094 168 117.492188 166.941406 117.167969 165.863281 C 116.839844 164.789062 116.570312 163.699219 116.347656 162.597656 C 116.128906 161.492188 115.964844 160.382812 115.855469 159.261719 C 115.746094 158.144531 115.691406 157.023438 115.691406 155.898438 C 115.691406 154.773438 115.746094 153.652344 115.855469 152.53125 C 115.964844 151.414062 116.128906 150.300781 116.347656 149.199219 C 116.570312 148.097656 116.839844 147.007812 117.167969 145.929688 C 117.492188 144.855469 117.871094 143.796875 118.300781 142.757812 C 118.730469 141.71875 119.210938 140.703125 119.738281 139.710938 C 120.269531 138.71875 120.84375 137.757812 121.46875 136.820312 C 122.09375 135.886719 122.761719 134.984375 123.472656 134.113281 C 124.1875 133.246094 124.941406 132.414062 125.734375 131.617188 C 126.527344 130.824219 127.359375 130.066406 128.226562 129.355469 C 129.09375 128.640625 129.996094 127.972656 130.929688 127.347656 C 131.863281 126.722656 132.824219 126.144531 133.816406 125.613281 C 134.808594 125.085938 135.820312 124.605469 136.859375 124.175781 C 137.894531 123.742188 138.953125 123.367188 140.027344 123.039062 C 141.101562 122.710938 142.191406 122.441406 143.292969 122.21875 C 144.390625 122 145.503906 121.835938 146.621094 121.726562 C 147.738281 121.617188 148.859375 121.5625 149.980469 121.5625 C 151.105469 121.5625 152.222656 121.617188 153.339844 121.726562 C 154.460938 121.835938 155.570312 122 156.671875 122.21875 C 157.773438 122.441406 158.859375 122.710938 159.933594 123.039062 C 161.007812 123.367188 162.066406 123.742188 163.101562 124.175781 C 164.140625 124.605469 165.15625 125.085938 166.144531 125.613281 C 167.136719 126.144531 168.097656 126.722656 169.03125 127.347656 C 169.964844 127.972656 170.867188 128.640625 171.734375 129.355469 C 172.601562 130.066406 173.433594 130.824219 174.226562 131.617188 C 175.023438 132.414062 175.773438 133.246094 176.488281 134.113281 C 177.199219 134.984375 177.867188 135.886719 178.492188 136.820312 C 179.117188 137.757812 179.691406 138.71875 180.222656 139.710938 C 180.75 140.703125 181.230469 141.71875 181.660156 142.757812 C 182.089844 143.796875 182.46875 144.855469 182.792969 145.929688 C 183.121094 147.007812 183.394531 148.097656 183.613281 149.199219 C 183.832031 150.300781 183.996094 151.414062 184.105469 152.53125 C 184.214844 153.652344 184.269531 154.773438 184.269531 155.898438 Z M 184.269531 155.898438 " fill-opacity="1" fill-rule="nonzero"/><g clip-path="url(#id3)"><path fill="rgb(0%, 0%, 0%)" d="M 149.980469 281.800781 C 114.800781 281.800781 102.15625 273.066406 100.832031 272.070312 C 99.390625 270.996094 98.546875 269.296875 98.546875 267.492188 L 98.546875 247.460938 C 98.546875 219.058594 121.621094 195.957031 149.980469 195.957031 C 178.34375 195.957031 201.414062 219.058594 201.414062 247.460938 L 201.414062 267.492188 C 201.414062 269.289062 200.570312 270.988281 199.128906 272.070312 C 197.808594 273.066406 185.164062 281.800781 149.980469 281.800781 Z M 149.980469 281.800781 " fill-opacity="1" fill-rule="nonzero"/></g><g clip-path="url(#id4)"><path fill="rgb(0%, 0%, 0%)" d="M 108.238281 200.523438 C 102.660156 178.128906 82.453125 161.464844 58.386719 161.464844 C 30.027344 161.464844 6.953125 184.570312 6.953125 212.972656 L 6.953125 233 C 6.953125 234.796875 7.796875 236.496094 9.238281 237.578125 C 10.5625 238.574219 23.203125 247.308594 58.386719 247.308594 C 70.578125 247.308594 80.007812 246.25 87.253906 244.835938 C 87.980469 227.238281 95.929688 211.511719 108.238281 200.523438 Z M 108.238281 200.523438 " fill-opacity="1" fill-rule="nonzero"/></g><g clip-path="url(#id5)"><path fill="rgb(0%, 0%, 0%)" d="M 241.265625 161.464844 C 217.28125 161.464844 197.136719 178.015625 191.472656 200.296875 C 203.941406 211.304688 212 227.152344 212.71875 244.898438 C 219.925781 246.277344 229.253906 247.308594 241.265625 247.308594 C 276.441406 247.308594 289.089844 238.574219 290.414062 237.578125 C 291.855469 236.503906 292.703125 234.804688 292.703125 233 L 292.703125 212.972656 C 292.703125 184.570312 269.628906 161.464844 241.265625 161.464844 Z M 241.265625 161.464844 " fill-opacity="1" fill-rule="nonzero"/></g><path fill="rgb(0%, 0%, 0%)" d="M 275.710938 121.5625 C 275.710938 122.683594 275.65625 123.808594 275.546875 124.925781 C 275.433594 126.046875 275.269531 127.15625 275.050781 128.257812 C 274.832031 129.363281 274.558594 130.453125 274.234375 131.527344 C 273.90625 132.605469 273.53125 133.660156 273.101562 134.699219 C 272.671875 135.738281 272.191406 136.753906 271.660156 137.746094 C 271.132812 138.738281 270.554688 139.703125 269.933594 140.636719 C 269.308594 141.574219 268.640625 142.472656 267.925781 143.34375 C 267.214844 144.214844 266.460938 145.046875 265.667969 145.839844 C 264.875 146.636719 264.042969 147.390625 263.175781 148.101562 C 262.304688 148.816406 261.40625 149.484375 260.472656 150.109375 C 259.539062 150.734375 258.574219 151.3125 257.585938 151.84375 C 256.59375 152.375 255.582031 152.855469 254.542969 153.285156 C 253.503906 153.714844 252.449219 154.09375 251.375 154.417969 C 250.300781 154.746094 249.210938 155.019531 248.109375 155.238281 C 247.007812 155.457031 245.898438 155.621094 244.78125 155.730469 C 243.664062 155.84375 242.542969 155.898438 241.421875 155.898438 C 240.296875 155.898438 239.175781 155.84375 238.058594 155.730469 C 236.941406 155.621094 235.832031 155.457031 234.730469 155.238281 C 233.628906 155.019531 232.542969 154.746094 231.46875 154.417969 C 230.390625 154.09375 229.335938 153.714844 228.296875 153.285156 C 227.261719 152.855469 226.246094 152.375 225.257812 151.84375 C 224.265625 151.3125 223.304688 150.734375 222.371094 150.109375 C 221.4375 149.484375 220.535156 148.816406 219.667969 148.101562 C 218.800781 147.390625 217.96875 146.636719 217.175781 145.839844 C 216.378906 145.046875 215.625 144.214844 214.914062 143.34375 C 214.203125 142.472656 213.535156 141.574219 212.910156 140.636719 C 212.285156 139.703125 211.710938 138.738281 211.179688 137.746094 C 210.648438 136.753906 210.171875 135.738281 209.742188 134.699219 C 209.3125 133.660156 208.933594 132.605469 208.605469 131.527344 C 208.28125 130.453125 208.007812 129.363281 207.789062 128.257812 C 207.570312 127.15625 207.40625 126.046875 207.296875 124.925781 C 207.1875 123.808594 207.128906 122.683594 207.128906 121.5625 C 207.128906 120.4375 207.1875 119.3125 207.296875 118.195312 C 207.40625 117.074219 207.570312 115.964844 207.789062 114.863281 C 208.007812 113.757812 208.28125 112.667969 208.605469 111.59375 C 208.933594 110.515625 209.3125 109.460938 209.742188 108.421875 C 210.171875 107.382812 210.648438 106.367188 211.179688 105.375 C 211.710938 104.382812 212.285156 103.417969 212.910156 102.484375 C 213.535156 101.550781 214.203125 100.648438 214.914062 99.777344 C 215.625 98.910156 216.378906 98.074219 217.175781 97.28125 C 217.96875 96.484375 218.800781 95.730469 219.667969 95.019531 C 220.535156 94.304688 221.4375 93.636719 222.371094 93.011719 C 223.304688 92.386719 224.265625 91.808594 225.257812 91.277344 C 226.246094 90.75 227.261719 90.269531 228.296875 89.835938 C 229.335938 89.40625 230.390625 89.027344 231.46875 88.703125 C 232.542969 88.375 233.628906 88.101562 234.730469 87.882812 C 235.832031 87.664062 236.941406 87.5 238.058594 87.390625 C 239.175781 87.277344 240.296875 87.222656 241.421875 87.222656 C 242.542969 87.222656 243.664062 87.277344 244.78125 87.390625 C 245.898438 87.5 247.007812 87.664062 248.109375 87.882812 C 249.210938 88.101562 250.300781 88.375 251.375 88.703125 C 252.449219 89.027344 253.503906 89.40625 254.542969 89.835938 C 255.582031 90.269531 256.59375 90.75 257.585938 91.277344 C 258.574219 91.808594 259.539062 92.386719 260.472656 93.011719 C 261.40625 93.636719 262.304688 94.304688 263.175781 95.019531 C 264.042969 95.730469 264.875 96.484375 265.667969 97.28125 C 266.460938 98.074219 267.214844 98.910156 267.925781 99.777344 C 268.640625 100.648438 269.308594 101.550781 269.933594 102.484375 C 270.554688 103.417969 271.132812 104.382812 271.660156 105.375 C 272.191406 106.367188 272.671875 107.382812 273.101562 108.421875 C 273.53125 109.460938 273.90625 110.515625 274.234375 111.59375 C 274.558594 112.667969 274.832031 113.757812 275.050781 114.863281 C 275.269531 115.964844 275.433594 117.074219 275.546875 118.195312 C 275.65625 119.3125 275.710938 120.4375 275.710938 121.5625 Z M 275.710938 121.5625 " fill-opacity="1" fill-rule="nonzero"/><path fill="rgb(0%, 0%, 0%)" d="M 92.832031 121.5625 C 92.832031 122.683594 92.777344 123.808594 92.664062 124.925781 C 92.554688 126.046875 92.390625 127.15625 92.171875 128.257812 C 91.953125 129.363281 91.679688 130.453125 91.355469 131.527344 C 91.027344 132.605469 90.648438 133.660156 90.21875 134.699219 C 89.789062 135.738281 89.3125 136.753906 88.78125 137.746094 C 88.253906 138.738281 87.675781 139.703125 87.050781 140.636719 C 86.429688 141.574219 85.757812 142.472656 85.046875 143.34375 C 84.335938 144.214844 83.582031 145.046875 82.789062 145.839844 C 81.992188 146.636719 81.164062 147.390625 80.292969 148.101562 C 79.425781 148.816406 78.523438 149.484375 77.589844 150.109375 C 76.65625 150.734375 75.695312 151.3125 74.703125 151.84375 C 73.714844 152.375 72.699219 152.855469 71.664062 153.285156 C 70.625 153.714844 69.570312 154.09375 68.496094 154.417969 C 67.417969 154.746094 66.332031 155.019531 65.230469 155.238281 C 64.128906 155.457031 63.019531 155.621094 61.902344 155.730469 C 60.785156 155.84375 59.664062 155.898438 58.539062 155.898438 C 57.417969 155.898438 56.296875 155.84375 55.179688 155.730469 C 54.0625 155.621094 52.953125 155.457031 51.851562 155.238281 C 50.75 155.019531 49.660156 154.746094 48.585938 154.417969 C 47.511719 154.09375 46.457031 153.714844 45.417969 153.285156 C 44.382812 152.855469 43.367188 152.375 42.375 151.84375 C 41.386719 151.3125 40.425781 150.734375 39.488281 150.109375 C 38.554688 149.484375 37.65625 148.816406 36.789062 148.101562 C 35.917969 147.390625 35.089844 146.636719 34.292969 145.839844 C 33.5 145.046875 32.746094 144.214844 32.035156 143.34375 C 31.320312 142.472656 30.652344 141.574219 30.03125 140.636719 C 29.40625 139.703125 28.828125 138.738281 28.300781 137.746094 C 27.769531 136.753906 27.289062 135.738281 26.859375 134.699219 C 26.429688 133.660156 26.054688 132.605469 25.726562 131.527344 C 25.402344 130.453125 25.128906 129.363281 24.910156 128.257812 C 24.691406 127.15625 24.527344 126.046875 24.414062 124.925781 C 24.304688 123.808594 24.25 122.683594 24.25 121.5625 C 24.25 120.4375 24.304688 119.3125 24.414062 118.195312 C 24.527344 117.074219 24.691406 115.964844 24.910156 114.863281 C 25.128906 113.757812 25.402344 112.667969 25.726562 111.59375 C 26.054688 110.515625 26.429688 109.460938 26.859375 108.421875 C 27.289062 107.382812 27.769531 106.367188 28.300781 105.375 C 28.828125 104.382812 29.40625 103.417969 30.03125 102.484375 C 30.652344 101.550781 31.320312 100.648438 32.035156 99.777344 C 32.746094 98.910156 33.5 98.074219 34.292969 97.28125 C 35.089844 96.484375 35.917969 95.730469 36.789062 95.019531 C 37.65625 94.304688 38.554688 93.636719 39.488281 93.011719 C 40.425781 92.386719 41.386719 91.808594 42.375 91.277344 C 43.367188 90.75 44.382812 90.269531 45.417969 89.835938 C 46.457031 89.40625 47.511719 89.027344 48.585938 88.703125 C 49.660156 88.375 50.75 88.101562 51.851562 87.882812 C 52.953125 87.664062 54.0625 87.5 55.179688 87.390625 C 56.296875 87.277344 57.417969 87.222656 58.539062 87.222656 C 59.664062 87.222656 60.785156 87.277344 61.902344 87.390625 C 63.019531 87.5 64.128906 87.664062 65.230469 87.882812 C 66.332031 88.101562 67.417969 88.375 68.496094 88.703125 C 69.570312 89.027344 70.625 89.40625 71.664062 89.835938 C 72.699219 90.269531 73.714844 90.75 74.703125 91.277344 C 75.695312 91.808594 76.65625 92.386719 77.589844 93.011719 C 78.523438 93.636719 79.425781 94.304688 80.292969 95.019531 C 81.164062 95.730469 81.992188 96.484375 82.789062 97.28125 C 83.582031 98.074219 84.335938 98.910156 85.046875 99.777344 C 85.757812 100.648438 86.429688 101.550781 87.050781 102.484375 C 87.675781 103.417969 88.253906 104.382812 88.78125 105.375 C 89.3125 106.367188 89.789062 107.382812 90.21875 108.421875 C 90.648438 109.460938 91.027344 110.515625 91.355469 111.59375 C 91.679688 112.667969 91.953125 113.757812 92.171875 114.863281 C 92.390625 115.964844 92.554688 117.074219 92.664062 118.195312 C 92.777344 119.3125 92.832031 120.4375 92.832031 121.5625 Z M 92.832031 121.5625 " fill-opacity="1" fill-rule="nonzero"/><path fill="rgb(0%, 0%, 0%)" d="M 195.699219 155.898438 C 195.699219 162.3125 194.367188 168.417969 191.980469 173.957031 C 197.550781 166.890625 204.585938 161.132812 212.554688 157.019531 C 202.277344 148.617188 195.707031 135.84375 195.707031 121.5625 C 195.707031 107.191406 202.363281 94.367188 212.738281 85.964844 C 207.273438 83.046875 201.105469 81.347656 194.402344 81.347656 C 175.890625 81.347656 160.605469 93.617188 155.941406 110.550781 C 178.332031 113.492188 195.699219 132.679688 195.699219 155.898438 Z M 195.699219 155.898438 " fill-opacity="1" fill-rule="nonzero"/><path fill="rgb(0%, 0%, 0%)" d="M 104.261719 121.5625 C 104.261719 135.894531 97.632812 148.710938 87.292969 157.109375 C 95.613281 161.4375 102.882812 167.578125 108.542969 175.113281 C 105.820312 169.265625 104.261719 162.765625 104.261719 155.898438 C 104.261719 133.160156 120.914062 114.296875 142.632812 110.761719 C 138.042969 93.71875 122.699219 81.347656 104.105469 81.347656 C 97.75 81.347656 91.859375 82.855469 86.605469 85.5 C 97.328125 93.886719 104.261719 106.917969 104.261719 121.5625 Z M 104.261719 121.5625 " fill-opacity="1" fill-rule="nonzero"/></svg>