<svg width="400" height="600" xmlns="http://www.w3.org/2000/svg">
 <g>
  <title>Layer 1</title>

  <g id="svg_80">
   <path id="svg_42" d="m313.67452,390.93107l-50.305,-15.277l0,-31.047c9.3125,-7.2539 16.363,-17.109 20.098,-28.426l7.1328,-21.641c10.824,-3.1836 19.176,-12.359 21.074,-23.766l3.6875,-22.125c1.8828,-11.281 -2.0469,-22.605 -10.516,-30.301l-0.38672,-0.35156c0.1875,-0.91797 0.33984,-1.8359 0.50391,-2.7578c1.8945,-2.1562 3.0781,-4.9492 3.0781,-8.043l0.00391,-49.754c18.793,-5.3438 32.594,-22.664 32.594,-43.145c0,-24.727 -20.117,-44.844 -44.844,-44.844c-11.176,0 -21.586,4.1406 -29.551,11.137c-14.203,-22.027 -38.895,-36.102 -66.125,-36.102c-26.578,0 -50.801,13.34 -65.184,34.641c-7.75,-6.1484 -17.488,-9.6758 -27.863,-9.6758c-24.727,0 -44.844,20.117 -44.844,44.844c0,20.48 13.805,37.801 32.594,43.145l0,49.754c0,3.1016 1.1914,5.9023 3.0898,8.0586c0.16406,0.91406 0.3125,1.8281 0.5,2.7383l-0.39062,0.35547c-8.4648,7.6914 -12.398,19.02 -10.516,30.297l3.6875,22.129c1.9023,11.406 10.254,20.578 21.074,23.766l7.1367,21.641c3.7305,11.32 10.777,21.172 20.098,28.426l0,31.047l-50.305,15.277c-48.184,14.633 -80.559,58.301 -80.559,108.66l0,55.148c0,6.7656 5.4844,12.25 12.25,12.25l361.1,0c6.7656,0 12.25,-5.4844 12.25,-12.25l0,-55.148c-0.00782,-50.359 -32.383,-94.027 -80.566,-108.66l0.00312,-0.00021zm-74.805,-6.3242l-35.738,35.738c-3.4844,-1.2852 -6.6914,-3.2891 -9.3984,-5.9961l-29.738,-29.742l0,-24.734l2.4883,1.4922c9.7656,5.8555 20.945,8.9531 32.328,8.9531l5.2344,0c11.387,0 22.566,-3.0977 32.328,-8.9531l2.4883,-1.4922l0.00391,24.734l0.00349,0.0001zm-152.14,-270.31c0,-11.219 9.1289,-20.344 20.344,-20.344c8.2695,0 15.656,4.9492 18.812,12.605c1.9453,4.7227 6.5938,7.7891 11.719,7.5781c5.1016,-0.16406 9.5703,-3.4766 11.211,-8.3125c7.4648,-22.027 28.086,-36.836 51.309,-36.836c24.5,0 46.012,16.551 52.32,40.254c1.4258,5.3672 6.2852,9.1016 11.836,9.1016l0.03516,0c5.5703,-0.01563 10.422,-3.7852 11.824,-9.1719c2.3281,-8.9648 10.414,-15.223 19.656,-15.223c11.219,0 20.344,9.1289 20.344,20.344c0,11.219 -9.1289,20.344 -20.344,20.344c-6.7656,0 -12.25,5.4844 -12.25,12.25l0,48.051l-31.797,0l0.0039,-30.426c0,-4.832 -3.918,-8.75 -8.75,-8.75c-4.832,0 -8.75,3.918 -8.75,8.75l0,30.434l-65.625,0l0,-30.434c0,-4.832 -3.918,-8.75 -8.75,-8.75c-4.832,0 -8.75,3.918 -8.75,8.75l0,30.434l-31.801,0l0,-48.051c0,-6.7656 -5.4844,-12.25 -12.25,-12.25c-11.219,0 -20.348,-9.125 -20.348,-20.348l0.00094,0.0007zm35.098,157.1l-1.7305,-0.18359c-2.3945,-0.25391 -4.3438,-2.0938 -4.7383,-4.4648l-3.6836,-22.129c-0.50391,-3.0273 0.55469,-6.0703 2.8242,-8.1328l5.7734,-5.2461c3.2852,-2.9844 4.6602,-7.4961 3.6758,-11.793l154.98,0c-0.98438,4.293 0.39062,8.8125 3.6758,11.797l5.7695,5.2383c2.2734,2.0664 3.3281,5.1016 2.8242,8.1328l-3.6875,22.129c-0.39453,2.3711 -2.3438,4.207 -4.7383,4.4609l-1.6914,0.18359c-5.418,0.56641 -10.035,4.2773 -11.77,9.4883l-9.1055,27.621c-2.6523,8.0508 -8.1133,14.879 -15.379,19.234l-21.039,12.613c-5.9609,3.5742 -12.781,5.4688 -19.734,5.4688l-5.2344,0c-6.9492,0 -13.773,-1.8906 -19.734,-5.4688l-21.039,-12.613c-7.2656,-4.3555 -12.727,-11.184 -15.379,-19.23l-9.1016,-27.609c-1.7031,-5.1914 -6.3203,-8.9258 -11.738,-9.4961l0.0002,-0.0005zm-88.691,228.19c0,-39.492 25.391,-73.738 63.18,-85.219l55.762,-16.938l29.289,29.293c8.2188,8.2188 19.141,12.742 30.766,12.742l64.203,0c4.5352,0 8.2266,3.6914 8.2266,8.2266l0,94.789l-251.43,0.00391l0.0034,-42.89751zm336.6,42.898l-67.676,0l0,-94.789c0,-14.184 -11.543,-25.727 -25.727,-25.727l-50.074,-0.00391l24.535,-24.535l55.762,16.938c37.793,11.477 63.184,45.719 63.184,85.219l0,42.898l-0.004,-0.00009z"/>
   <path id="svg_43" d="m252.62452,452.98107c-5.8711,0 -10.645,4.7734 -10.645,10.645c0,5.8711 4.7734,10.648 10.645,10.648s10.648,-4.7734 10.648,-10.648c0,-5.8711 -4.7773,-10.645 -10.648,-10.645z"/>
   <path id="svg_44" d="m252.62452,512.01107c-5.8711,0 -10.645,4.7734 -10.645,10.645c0,5.8711 4.7734,10.648 10.645,10.648s10.648,-4.7734 10.648,-10.648c0,-5.8672 -4.7773,-10.645 -10.648,-10.645z"/>
  </g>
 </g>
</svg>