<svg xmlns="http://www.w3.org/2000/svg" xmlns:xlink="http://www.w3.org/1999/xlink" width="900" zoomAndPan="magnify" viewBox="0 0 675 675.000002" height="900" preserveAspectRatio="xMidYMid meet" version="1.0"><defs><clipPath id="id1"><path d="M 18.59375 250 L 656.648438 250 L 656.648438 622.585938 L 18.59375 622.585938 Z M 18.59375 250 " clip-rule="nonzero"/></clipPath><clipPath id="id2"><path d="M 312 51.183594 L 364 51.183594 L 364 211 L 312 211 Z M 312 51.183594 " clip-rule="nonzero"/></clipPath></defs><g clip-path="url(#id1)"><path fill="rgb(0%, 0%, 0%)" d="M 631.417969 401.464844 L 602.09375 391.71875 C 588.230469 387.089844 570.726562 373.0625 563.210938 360.53125 C 563.210938 360.53125 497.128906 250.484375 337.625 250.484375 C 178.117188 250.484375 112.035156 360.53125 112.035156 360.53125 C 104.519531 373.0625 87.015625 387.089844 73.132812 391.71875 L 43.847656 401.464844 C 29.964844 406.078125 18.613281 421.816406 18.613281 436.429688 L 18.613281 489.539062 C 18.613281 501.410156 26.070312 508.996094 36.292969 508.996094 C 38.667969 508.996094 41.199219 508.585938 43.847656 507.710938 L 64.699219 500.765625 L 124.964844 622.382812 L 550.300781 622.382812 L 611.207031 500.980469 L 631.417969 507.710938 C 634.046875 508.585938 636.578125 508.996094 638.972656 508.996094 C 649.175781 508.996094 656.632812 501.410156 656.632812 489.539062 L 656.632812 436.429688 C 656.632812 421.816406 645.28125 406.078125 631.417969 401.464844 Z M 232.65625 497.945312 C 239.585938 495.652344 248.71875 494.484375 257.871094 494.484375 C 267.019531 494.484375 276.152344 495.652344 283.082031 497.945312 L 312.40625 507.714844 C 319.339844 510.027344 328.46875 511.175781 337.621094 511.175781 C 346.773438 511.175781 355.902344 510.027344 362.835938 507.714844 L 392.160156 497.945312 C 399.089844 495.652344 408.222656 494.484375 417.371094 494.484375 C 426.523438 494.484375 435.65625 495.652344 442.585938 497.945312 L 471.910156 507.714844 C 478.839844 510.027344 487.972656 511.175781 497.125 511.175781 C 506.273438 511.175781 515.40625 510.027344 522.335938 507.714844 L 551.660156 497.945312 C 558.59375 495.652344 567.722656 494.484375 576.875 494.484375 C 579.464844 494.484375 582.054688 494.601562 584.585938 494.773438 L 553.878906 555.960938 L 121.710938 555.960938 L 91.375 494.714844 C 93.671875 494.5625 96.027344 494.484375 98.363281 494.484375 C 107.515625 494.484375 116.648438 495.652344 123.578125 497.945312 L 152.898438 507.714844 C 159.832031 510.027344 168.964844 511.175781 178.113281 511.175781 C 187.265625 511.175781 196.398438 510.027344 203.347656 507.714844 Z M 510.929688 595.804688 C 510.929688 592.421875 509.625 588.996094 507.035156 586.410156 C 504.449219 583.820312 501.039062 582.539062 497.632812 582.539062 C 494.246094 582.539062 490.839844 583.820312 488.25 586.410156 C 485.640625 588.996094 484.355469 592.421875 484.355469 595.804688 L 431.179688 595.804688 C 431.179688 592.421875 429.875 588.996094 427.285156 586.410156 C 424.695312 583.820312 421.289062 582.539062 417.878906 582.539062 C 414.492188 582.539062 411.085938 583.820312 408.496094 586.410156 C 405.886719 588.996094 404.601562 592.421875 404.601562 595.804688 L 351.425781 595.804688 C 351.425781 592.421875 350.121094 588.996094 347.535156 586.410156 C 344.945312 583.820312 341.535156 582.539062 338.128906 582.539062 C 334.738281 582.539062 331.332031 583.820312 328.742188 586.410156 C 326.132812 588.996094 324.847656 592.421875 324.847656 595.804688 L 271.675781 595.804688 C 271.675781 592.421875 270.371094 588.996094 267.78125 586.410156 C 265.191406 583.820312 261.785156 582.539062 258.375 582.539062 C 254.988281 582.539062 251.582031 583.820312 248.992188 586.410156 C 246.382812 588.996094 245.097656 592.421875 245.097656 595.804688 L 191.921875 595.804688 C 191.921875 592.421875 190.617188 588.996094 188.027344 586.410156 C 185.4375 583.820312 182.03125 582.539062 178.625 582.539062 C 175.234375 582.539062 171.828125 583.820312 169.238281 586.410156 C 166.628906 588.996094 165.34375 592.421875 165.34375 595.804688 L 141.453125 595.804688 L 134.871094 582.539062 L 540.546875 582.539062 L 533.890625 595.804688 Z M 630.054688 479.269531 L 610.503906 472.75 C 598.53125 468.761719 585.601562 467.925781 576.878906 467.925781 C 568.15625 467.925781 555.226562 468.761719 543.253906 472.75 L 513.929688 482.519531 C 510.894531 483.53125 504.875 484.621094 497.128906 484.621094 C 489.378906 484.621094 483.363281 483.53125 480.324219 482.519531 L 451.003906 472.75 C 439.027344 468.761719 426.101562 467.925781 417.375 467.925781 C 408.65625 467.925781 395.726562 468.761719 383.75 472.75 L 354.449219 482.519531 C 351.390625 483.53125 345.375 484.621094 337.625 484.621094 C 329.875 484.621094 323.859375 483.53125 320.820312 482.519531 L 291.5 472.75 C 279.523438 468.761719 266.597656 467.925781 257.875 467.925781 C 249.152344 467.925781 236.222656 468.761719 224.246094 472.75 L 194.945312 482.519531 C 191.886719 483.53125 185.871094 484.621094 178.121094 484.621094 C 170.371094 484.621094 164.355469 483.53125 161.296875 482.519531 L 131.992188 472.75 C 120.019531 468.761719 107.089844 467.925781 98.367188 467.925781 C 89.644531 467.925781 76.71875 468.761719 64.742188 472.75 L 45.214844 479.269531 L 45.214844 436.429688 C 45.214844 433.316406 49.28125 427.652344 52.242188 426.660156 L 81.546875 416.914062 C 101.5625 410.242188 123.996094 392.285156 134.839844 374.207031 C 134.976562 373.976562 149.578125 350.445312 181.042969 326.710938 C 200.085938 312.34375 221.289062 300.894531 244.109375 292.671875 C 272.867188 282.300781 304.332031 277.050781 337.628906 277.050781 C 370.355469 277.050781 401.316406 282.125 429.664062 292.136719 C 452.269531 300.125 473.359375 311.28125 492.320312 325.289062 C 524.605469 349.152344 539.964844 373.507812 540.472656 374.289062 C 551.355469 392.34375 573.710938 410.261719 593.707031 416.914062 L 623.011719 426.660156 C 625.972656 427.652344 630.058594 433.316406 630.058594 436.429688 L 630.058594 479.269531 Z M 630.054688 479.269531 " fill-opacity="1" fill-rule="nonzero"/></g><path fill="rgb(0%, 0%, 0%)" d="M 347.027344 320.785156 C 341.828125 315.601562 333.417969 315.601562 328.21875 320.785156 C 325.628906 323.375 324.324219 326.777344 324.324219 330.171875 L 324.324219 397.847656 L 324.382812 397.847656 C 324.671875 400.824219 325.960938 403.703125 328.21875 405.960938 C 333.417969 411.15625 341.828125 411.15625 347.027344 405.960938 C 349.285156 403.703125 350.570312 400.824219 350.863281 397.847656 L 350.921875 397.847656 L 350.921875 330.171875 C 350.921875 326.777344 349.617188 323.375 347.027344 320.785156 Z M 347.027344 320.785156 " fill-opacity="1" fill-rule="nonzero"/><path fill="rgb(0%, 0%, 0%)" d="M 280.550781 320.785156 C 275.375 315.601562 266.960938 315.601562 261.765625 320.785156 C 260.945312 321.601562 260.285156 322.496094 259.71875 323.441406 L 259.699219 323.441406 L 222.433594 386.699219 C 222.257812 386.855469 222.0625 387.011719 221.886719 387.207031 C 216.707031 392.382812 216.707031 400.785156 221.886719 405.960938 C 227.085938 411.175781 235.496094 411.175781 240.675781 405.960938 C 241.222656 405.417969 241.707031 404.832031 242.136719 404.230469 L 242.738281 404.597656 L 282.613281 336.914062 L 282.59375 336.90625 C 285.617188 331.816406 284.933594 325.164062 280.550781 320.785156 Z M 280.550781 320.785156 " fill-opacity="1" fill-rule="nonzero"/><path fill="rgb(0%, 0%, 0%)" d="M 452.8125 386.699219 L 415.542969 323.441406 L 415.523438 323.441406 C 414.960938 322.496094 414.296875 321.59375 413.480469 320.785156 C 408.28125 315.601562 399.871094 315.601562 394.691406 320.785156 C 390.308594 325.152344 389.628906 331.816406 392.648438 336.902344 L 392.628906 336.914062 L 432.503906 404.597656 L 433.105469 404.226562 C 433.535156 404.832031 434.019531 405.414062 434.566406 405.960938 C 439.746094 411.175781 448.15625 411.175781 453.355469 405.960938 C 458.554688 400.785156 458.554688 392.382812 453.355469 387.207031 C 453.179688 387.011719 452.988281 386.855469 452.8125 386.699219 Z M 452.8125 386.699219 " fill-opacity="1" fill-rule="nonzero"/><path fill="rgb(0%, 0%, 0%)" d="M 424.460938 187.679688 C 427.363281 197.769531 432.972656 204.917969 433.613281 205.695312 C 436.046875 208.714844 439.785156 210.640625 443.953125 210.640625 C 451.292969 210.640625 457.253906 204.695312 457.253906 197.359375 C 457.253906 194.199219 456.140625 191.308594 454.3125 189.035156 L 454.3125 189.023438 C 454.273438 188.996094 451.410156 185.179688 450.027344 180.355469 C 448.390625 174.695312 449.40625 170.570312 453.378906 166.582031 C 464.164062 155.753906 467.746094 141.6875 463.425781 126.980469 C 460.542969 117.105469 454.976562 110.140625 454.234375 109.234375 C 454.214844 109.226562 454.214844 109.214844 454.214844 109.207031 C 454.195312 109.207031 454.195312 109.195312 454.195312 109.195312 C 451.761719 106.257812 448.082031 104.390625 443.953125 104.390625 C 436.613281 104.390625 430.675781 110.335938 430.675781 117.671875 C 430.675781 120.871094 431.804688 123.808594 433.691406 126.101562 L 433.65625 126.054688 C 433.675781 126.09375 436.75 129.984375 438.074219 134.996094 C 439.417969 140.160156 438.367188 144.003906 434.550781 147.835938 C 423.761719 158.644531 420.199219 172.796875 424.460938 187.679688 Z M 433.710938 126.132812 C 433.710938 126.132812 433.710938 126.144531 433.730469 126.144531 Z M 433.710938 126.132812 " fill-opacity="1" fill-rule="nonzero"/><g clip-path="url(#id2)"><path fill="rgb(0%, 0%, 0%)" d="M 314.589844 179.09375 C 318.542969 193.957031 326.191406 204.277344 327.050781 205.40625 L 327.050781 205.394531 C 329.484375 208.578125 333.300781 210.640625 337.621094 210.640625 C 344.964844 210.640625 350.921875 204.695312 350.921875 197.359375 C 350.921875 194.363281 349.910156 191.601562 348.234375 189.386719 L 348.234375 189.375 C 348.195312 189.296875 342.648438 181.777344 340.097656 171.550781 C 337.039062 159.304688 339.492188 148.898438 347.574219 139.753906 C 361.785156 123.699219 366.304688 104.011719 360.65625 82.816406 C 356.703125 67.941406 349.050781 57.628906 348.195312 56.503906 L 348.195312 56.511719 C 345.761719 53.332031 341.945312 51.261719 337.625 51.261719 C 330.28125 51.261719 324.324219 57.210938 324.324219 64.546875 C 324.324219 67.542969 325.335938 70.296875 327.011719 72.523438 L 327.011719 72.535156 C 327.050781 72.601562 332.597656 80.121094 335.148438 90.355469 C 338.207031 102.601562 335.753906 113.003906 327.671875 122.15625 C 313.457031 138.207031 308.941406 157.886719 314.589844 179.09375 Z M 314.589844 179.09375 " fill-opacity="1" fill-rule="nonzero"/></g><path fill="rgb(0%, 0%, 0%)" d="M 211.800781 187.679688 C 214.683594 197.769531 220.308594 204.917969 220.933594 205.695312 C 223.386719 208.714844 227.105469 210.640625 231.292969 210.640625 C 238.632812 210.640625 244.570312 204.695312 244.570312 197.359375 C 244.570312 194.207031 243.460938 191.308594 241.632812 189.035156 L 241.632812 189.023438 C 241.609375 188.996094 238.730469 185.179688 237.347656 180.355469 C 235.730469 174.695312 236.722656 170.570312 240.695312 166.582031 C 251.503906 155.753906 255.066406 141.6875 250.761719 126.980469 C 247.863281 117.09375 242.273438 110.121094 241.550781 109.226562 L 241.53125 109.214844 C 241.53125 109.207031 241.511719 109.195312 241.511719 109.195312 C 239.078125 106.257812 235.398438 104.390625 231.289062 104.390625 C 223.949219 104.390625 217.992188 110.332031 217.992188 117.667969 C 217.992188 120.871094 219.121094 123.808594 221.011719 126.101562 L 220.972656 126.054688 C 221.011719 126.09375 224.085938 129.984375 225.390625 134.992188 C 226.753906 140.160156 225.703125 144 221.867188 147.835938 C 211.101562 158.644531 207.519531 172.796875 211.800781 187.679688 Z M 221.03125 126.132812 C 221.050781 126.132812 221.050781 126.144531 221.050781 126.144531 Z M 221.03125 126.132812 " fill-opacity="1" fill-rule="nonzero"/></svg>